<?xml version="1.0" encoding="utf-8"?>
<!-- Generator: Adobe Illustrator 18.0.0, SVG Export Plug-In . SVG Version: 6.00 Build 0)  -->
<!DOCTYPE svg PUBLIC "-//W3C//DTD SVG 1.1//EN" "http://www.w3.org/Graphics/SVG/1.1/DTD/svg11.dtd">
<svg version="1.1" id="Layer_1" xmlns="http://www.w3.org/2000/svg" xmlns:xlink="http://www.w3.org/1999/xlink" x="0px" y="0px"
	 viewBox="96 339 501 492" style="enable-background:new 96 339 501 492;" xml:space="preserve">
<style type="text/css">
	.st0{fill:#002F46;}
</style>
<path class="st0" d="M344.5,347.5C213.3,347.5,107,453.8,107,585s106.3,237.5,237.5,237.5S582,716.2,582,585
	S475.7,347.5,344.5,347.5z M295.1,635.8c2.3,2.3,2.3,6,0,8.3c-2.3,2.3-6,2.3-8.3,0L227,584.3c-2.3-2.3-2.3-6,0-8.3c0,0,0,0,0,0
	l60.2-60.2c2.4-2.2,6.1-2,8.3,0.4c2,2.2,2,5.7,0,7.9l-56,56.1L295.1,635.8z M383.5,501.7L316.3,659c-1.3,3-4.7,4.4-7.7,3.1
	s-4.4-4.7-3.1-7.7l67.1-157.3c1.3-3,4.7-4.4,7.7-3.1c0,0,0,0,0,0C383.4,495.3,384.7,498.8,383.5,501.7z M462,583.9l-60.2,60.2
	c-2.3,2.3-6,2.3-8.3,0c-2.3-2.3-2.3-6,0-8.3l56.1-56.1l-55.6-55.6c-2.3-2.3-2.3-6,0-8.3c2.3-2.3,6-2.3,8.3,0l59.7,59.7c0,0,0,0,0,0
	C464.3,577.9,464.3,581.6,462,583.9z"/>
</svg>
