<?xml version="1.0" encoding="utf-8"?>
<!-- Generator: Adobe Illustrator 18.0.0, SVG Export Plug-In . SVG Version: 6.00 Build 0)  -->
<!DOCTYPE svg PUBLIC "-//W3C//DTD SVG 1.1//EN" "http://www.w3.org/Graphics/SVG/1.1/DTD/svg11.dtd">
<svg version="1.1" id="Layer_1" xmlns="http://www.w3.org/2000/svg" xmlns:xlink="http://www.w3.org/1999/xlink" x="0px" y="0px"
	 viewBox="75 308 487 484" style="enable-background:new 75 308 487 484;" xml:space="preserve">
<style type="text/css">
	.st0{fill:#002F46;}
</style>
<g>
	<path class="st0" d="M299.9,596.9c0.7,0.5,1.4,1.1,2,1.8l4.4-9.3c-0.3-2.2-0.9-3.8-1.9-4.5c-0.9-0.6-2-0.8-2.9-0.8
		c-0.3,0-0.5,0-0.8,0l-4.5,10.6C297.6,595.4,298.8,596.1,299.9,596.9z"/>
	<path class="st0" d="M288.1,626.2c0.3-0.2,0.6-0.3,1-0.4c1.6-0.6,3.2-2.4,5.2-5.1c2.3-3.1,3.1-6.1,2.4-9.1
		c-0.6-2.6-2.3-4.6-3.5-5.5c-1.3-1-2.9-1.5-4.6-1.5c-3.4,0-6.9,1.9-9.2,5.1c-1.6,2.2-2.5,4.8-2.5,7.4c0.5,2,1.5,7.7-0.1,15.5
		L288.1,626.2z"/>
	<path class="st0" d="M372.4,434.9c-1-0.4-2-0.7-3-0.7c-2.8,0-5.4,1.7-6.6,4.2l-57.3,134.7c2.1,0.5,4,1.3,5.6,2.5
		c0.5,0.3,0.9,0.7,1.3,1.1L376,444.3C377.6,440.8,376,436.5,372.4,434.9z"/>
	<path class="st0" d="M319.5,314C188.3,314,82,420.3,82,551.5S188.3,789,319.5,789S557,682.7,557,551.5S450.7,314,319.5,314z
		 M386.3,449.2l-77.2,161c-0.2,0.5-0.5,0.9-0.9,1.3c0.5,4.2-0.3,9.8-4.7,15.9c-2.6,3.6-5.5,7.2-10.2,8.9l-25.2,14.3
		c-0.8,0.5-1.8,0.8-2.8,0.8c-1.5,0-3-0.6-4.1-1.7c-1.8-1.9-2.1-4.7-0.8-7c8.2-13.5,5.3-22.9,5.3-23c-0.1-0.3-0.2-0.8-0.3-1.4
		c-0.3-5.4,1.3-10.8,4.7-15.4c3.6-4.9,8.7-8.2,14.3-9.3l67.9-159.8c3.1-6.7,9.8-11,17.1-11c2.7,0,5.3,0.6,7.7,1.7
		C386.5,428.7,390.6,439.8,386.3,449.2z"/>
</g>
</svg>
