<?xml version="1.0" encoding="utf-8"?>
<!-- Generator: Adobe Illustrator 18.0.0, SVG Export Plug-In . SVG Version: 6.00 Build 0)  -->
<!DOCTYPE svg PUBLIC "-//W3C//DTD SVG 1.1//EN" "http://www.w3.org/Graphics/SVG/1.1/DTD/svg11.dtd">
<svg version="1.1" id="Layer_1" xmlns="http://www.w3.org/2000/svg" xmlns:xlink="http://www.w3.org/1999/xlink" x="0px" y="0px"
	 viewBox="74 149 488 491" style="enable-background:new 74 149 488 491;" xml:space="preserve">
<style type="text/css">
	.st0{fill:#002F46;}
</style>
<g>
	<rect x="251.6" y="368.4" class="st0" width="28.8" height="28.8"/>
	<path class="st0" d="M266,301c2.6,0,4.8-2.1,4.8-4.8c0-2.7-2.1-4.8-4.8-4.8c-2.6,0-4.8,2.2-4.8,4.8C261.2,298.9,263.4,301,266,301z
		"/>
	<rect x="347.6" y="445.2" class="st0" width="28.8" height="28.8"/>
	<path class="st0" d="M267.3,464.4h-2.5c-2,0.6-3.5,2.4-3.5,4.6c0,2.6,2.1,4.8,4.8,4.8c2.6,0,4.8-2.2,4.8-4.8
		C270.8,466.8,269.3,464.9,267.3,464.4z"/>
	<rect x="347.6" y="291.6" class="st0" width="28.8" height="28.8"/>
	<path class="st0" d="M319.1,154.2c-131.2,0-237.5,106.3-237.5,237.5s106.3,237.5,237.5,237.5s237.5-106.3,237.5-237.5
		S450.2,154.2,319.1,154.2z M386,325.2c0,2.7-2.2,4.8-4.8,4.8h-38.4c-2.6,0-4.8-2.1-4.8-4.8v-12.3c-27,2.5-50.2,20.5-59.4,45.9h6.7
		c2.6,0,4.8,2.1,4.8,4.8V402c0,2.7-2.1,4.8-4.8,4.8h-6.6c9.2,25.5,32.4,43.4,59.4,45.9v-12.3c0-2.6,2.2-4.8,4.8-4.8h38.4
		c2.6,0,4.8,2.2,4.8,4.8v38.4c0,2.7-2.2,4.8-4.8,4.8h-38.4c-2.6,0-4.8-2.1-4.8-4.8v-16.4c-29.9-2.5-55.8-21.6-67.2-49v42.1
		c5.6,2,9.6,7.3,9.6,13.6c0,7.9-6.5,14.4-14.4,14.4c-7.9,0-14.4-6.5-14.4-14.4c0-6.3,4-11.6,9.6-13.6v-48.6h-14.4
		c-2.6,0-4.8-2.1-4.8-4.8v-38.4c0-2.6,2.1-4.8,4.8-4.8h14.4c0,0,0-36.6,0-49c-5.6-2-9.6-7.3-9.6-13.6c0-7.9,6.5-14.4,14.4-14.4
		c7.9,0,14.4,6.5,14.4,14.4c0,6.2-4,11.6-9.6,13.6v42.4c11.4-27.5,37.3-46.5,67.2-49v-16.4c0-2.6,2.2-4.8,4.8-4.8h38.4
		c2.6,0,4.8,2.1,4.8,4.8V325.2z"/>
</g>
</svg>
