<?xml version="1.0" encoding="utf-8"?>
<!-- Generator: Adobe Illustrator 18.0.0, SVG Export Plug-In . SVG Version: 6.00 Build 0)  -->
<!DOCTYPE svg PUBLIC "-//W3C//DTD SVG 1.1//EN" "http://www.w3.org/Graphics/SVG/1.1/DTD/svg11.dtd">
<svg version="1.1" id="Layer_1" xmlns="http://www.w3.org/2000/svg" xmlns:xlink="http://www.w3.org/1999/xlink" x="0px" y="0px"
	 viewBox="0 0 378 212" style="enable-background:new 0 0 378 212;" xml:space="preserve">
<style type="text/css">
	.st0{fill:none;stroke:#FFFFFF;stroke-width:9;stroke-miterlimit:10;}
	.st1{fill:#FFFFFF;stroke:#FFFFFF;stroke-miterlimit:10;}
</style>
<polyline class="st0" points="10.3,196.1 191.4,18 368.9,196.1 "/>
<g>
	<g>
		<path class="st1" d="M200.5,84.9h16.2v53.8h-10.5v-36.4c0-1,0-2.5,0-4.4s0-3.3,0-4.4l-10.2,45.2h-10.9L175,93.6c0,1,0,2.5,0,4.4
			s0,3.4,0,4.4v36.4h-10.5V84.9H181l9.8,42.3L200.5,84.9z"/>
	</g>
	<g>
		<path class="st1" d="M206.2,138.7h10.5l-20.1,59.7l-11.7,0l-20.2-59.7h10.5l15.8,45.3L206.2,138.7z"/>
	</g>
</g>
</svg>
